<svg width="22" height="36" viewBox="0 0 22 36" fill="none" xmlns="http://www.w3.org/2000/svg">
<path d="M21.8004 4.60581C22.0663 4.34665 22.0663 3.9579 21.8004 3.69874L21.7561 3.65555L17.9013 0.761555C17.7683 0.675167 17.6354 0.631973 17.5025 0.631973H2.9692C2.61473 0.631973 2.30457 0.934331 2.30457 1.27988V6.03121C2.30457 6.37676 2.61473 6.67912 2.9692 6.67912H7.0013L3.72245 11.3009C3.50091 11.6032 3.58952 11.992 3.89968 12.2079C4.20985 12.4239 4.60863 12.3375 4.83017 12.0352L8.59642 6.72231L11.6094 8.10452V10.9985H10.1472C9.92568 10.9985 9.70413 11.0849 9.61552 11.3009L0.665143 24.259C0.576526 24.3454 0.532217 24.475 0.576526 24.6046V34.5392C0.576526 34.8847 0.886687 35.1871 1.24116 35.1871H19.4078C19.7622 35.1871 20.0724 34.8847 20.0724 34.5392V11.6464C20.0724 11.3009 19.7622 10.9985 19.4078 10.9985H17.8126V8.53646L21.8004 4.60581ZM1.86148 33.8913V25.6844H18.6988V33.8913H1.86148ZM18.6988 24.3886H2.17164L10.5017 12.2943H18.6988V24.3886ZM12.9387 10.9985V7.67258C12.9387 7.41341 12.8057 7.19744 12.5399 7.11106L8.99519 5.46969C8.90658 5.4265 8.81796 5.4265 8.72934 5.4265H3.63383V1.92779H17.2366L20.2939 4.21707L16.6606 7.80216C16.5277 7.93174 16.4834 8.10452 16.4834 8.27729V10.9985H12.9387Z" fill="#007198"/>
</svg>
