<svg width="33" height="19" viewBox="0 0 33 19" fill="none" xmlns="http://www.w3.org/2000/svg">
<path d="M32.8247 17.159C32.7845 17.0724 32.7473 16.9999 32.7127 16.9421C32.1398 15.9017 31.0461 14.6242 29.4312 13.1099L29.3966 13.0755L29.3795 13.0577L29.3624 13.041H29.3454C28.6122 12.3356 28.1483 11.8617 27.9539 11.6185C27.5989 11.1568 27.5186 10.6886 27.7134 10.2147C27.8515 9.85646 28.3667 9.09934 29.26 7.94289C29.7295 7.33072 30.1016 6.83966 30.3767 6.4687C32.3582 3.81018 33.2168 2.11149 32.9537 1.3711L32.8503 1.19778C32.7815 1.09339 32.6037 0.998117 32.3175 0.91146C32.0313 0.824802 31.6647 0.811119 31.2183 0.868384L26.2703 0.903858C26.1558 0.892202 26.0413 0.895243 25.9263 0.911966C25.8118 0.929703 25.7375 0.946934 25.7029 0.964164C25.6682 0.981901 25.6401 0.99609 25.617 1.00724L25.5482 1.05944C25.491 1.0939 25.4282 1.15471 25.3594 1.24187C25.2906 1.32853 25.2329 1.42938 25.1877 1.54543C24.6494 2.94411 24.0368 4.24449 23.3493 5.44705C22.9255 6.16363 22.5359 6.78543 22.1814 7.31095C21.8264 7.83749 21.5286 8.22466 21.2881 8.47247C21.0476 8.72079 20.8296 8.92096 20.6353 9.07046C20.4405 9.22148 20.2913 9.28432 20.1889 9.26151C20.0855 9.23871 19.988 9.21539 19.8967 9.19158C19.7365 9.08769 19.6069 8.9463 19.51 8.7669C19.4126 8.58801 19.3468 8.3625 19.3122 8.09087C19.278 7.81924 19.2574 7.58512 19.2524 7.38849C19.2464 7.19186 19.2494 6.91466 19.261 6.55637C19.2725 6.19809 19.278 5.95585 19.278 5.82814C19.278 5.38928 19.2866 4.91241 19.3041 4.39753C19.3212 3.88316 19.3358 3.47572 19.3468 3.1752C19.3584 2.87519 19.3639 2.55694 19.3639 2.22146C19.3639 1.88699 19.3438 1.62347 19.3036 1.43242C19.2635 1.24187 19.2032 1.05741 19.1234 0.877506C19.043 0.698616 18.9255 0.559761 18.7709 0.461954C18.6162 0.363641 18.4244 0.285598 18.1954 0.227827C17.5878 0.0889716 16.815 0.0144764 15.8761 0.00231393C13.7455 -0.019984 12.3767 0.118871 11.7696 0.418879C11.5291 0.546585 11.3111 0.719394 11.1168 0.939332C10.9104 1.19373 10.8818 1.33309 11.0309 1.35488C11.7184 1.45928 12.2049 1.7081 12.4911 2.10085L12.5946 2.30862C12.6744 2.45964 12.7548 2.72519 12.8351 3.10628C12.9155 3.48788 12.9667 3.90951 12.9898 4.37219C13.047 5.21597 13.047 5.93811 12.9898 6.53965C12.9325 7.14118 12.8783 7.60893 12.8266 7.9434C12.7749 8.27888 12.6975 8.55001 12.5946 8.75829C12.4911 8.96708 12.4229 9.09428 12.3882 9.14039C12.3536 9.18651 12.3254 9.21539 12.3023 9.22705C12.1532 9.28432 11.9991 9.31371 11.8384 9.31371C11.6777 9.31371 11.4834 9.23263 11.2539 9.07046C11.0249 8.90931 10.7869 8.68633 10.5409 8.40304C10.2943 8.12027 10.0171 7.72397 9.7073 7.21517C9.39799 6.70688 9.07712 6.10585 8.74521 5.41209L8.47054 4.90886C8.29881 4.58554 8.06381 4.11425 7.76604 3.49599C7.46828 2.87773 7.20466 2.27974 6.97568 1.70101C6.88379 1.45877 6.74671 1.2738 6.56343 1.14609L6.47756 1.0939C6.42032 1.04778 6.32843 0.998624 6.20239 0.946933C6.07585 0.894736 5.94479 0.857235 5.80721 0.833924L1.09968 0.868384C0.618632 0.868384 0.292243 0.97886 0.120513 1.19829L0.0517201 1.30218C0.0170726 1.36046 0 1.4532 0 1.57989C0 1.7076 0.0346474 1.86317 0.10344 2.04764C0.790865 3.67792 1.53804 5.24992 2.34548 6.76364C3.15342 8.27838 3.8544 9.49817 4.45044 10.4225C5.04597 11.3479 5.65305 12.22 6.27169 13.041C6.89032 13.862 7.29956 14.3875 7.49991 14.6186C7.70026 14.8502 7.85743 15.0235 7.97242 15.139L8.40175 15.5556C8.67642 15.8328 9.08064 16.1652 9.6129 16.5524C10.1457 16.9401 10.7352 17.3212 11.3824 17.6962C12.0292 18.0722 12.7829 18.3778 13.6415 18.6155C14.5007 18.8526 15.3368 18.9479 16.1497 18.9013H18.1256C18.5268 18.8668 18.8301 18.7401 19.036 18.5197L19.1048 18.433C19.1505 18.3641 19.1937 18.2567 19.2338 18.1128C19.2735 17.9683 19.2941 17.8092 19.2941 17.6359C19.282 17.1387 19.3197 16.6903 19.4056 16.2919C19.4914 15.8931 19.5888 15.5926 19.6978 15.3899C19.8068 15.1882 19.9293 15.0174 20.0674 14.8786C20.205 14.7397 20.3019 14.6566 20.3596 14.6272C20.4169 14.5988 20.4631 14.5785 20.4972 14.5664C20.7719 14.4741 21.0953 14.5638 21.4678 14.835C21.8399 15.1071 22.1894 15.4416 22.5158 15.8409C22.8422 16.2397 23.2344 16.6872 23.6928 17.1849C24.1508 17.682 24.5515 18.0514 24.8954 18.2942L25.2394 18.503C25.4684 18.6413 25.7661 18.7685 26.1327 18.8846C26.4993 18.9996 26.8201 19.029 27.0948 18.9712L31.493 18.9013C31.9284 18.9013 32.2663 18.8293 32.5068 18.6844C32.7473 18.541 32.8904 18.3808 32.9361 18.2075C32.9818 18.0342 32.9848 17.8386 32.9447 17.6181C32.9045 17.3987 32.8643 17.2457 32.8247 17.159Z" fill="#111111"/>
</svg>
