<svg width="21" height="19" viewBox="0 0 21 19" fill="none" xmlns="http://www.w3.org/2000/svg">
<path d="M17.9408 2.76114C15.9668 0.981431 13.3413 0.000942476 10.5441 0C4.78099 0 0.0900164 4.22323 0.087923 9.41439C0.0872252 11.0738 0.568708 12.6936 1.48353 14.1211L0 19L5.54299 17.6909C7.07013 18.4411 8.78986 18.8363 10.5396 18.837H10.5438C16.3066 18.837 20.9976 14.6131 21 9.42225C21.0017 6.90615 19.9153 4.54085 17.9408 2.76114ZM10.5445 17.2467H10.541C8.98141 17.2461 7.45183 16.8687 6.11763 16.1559L5.80013 15.9863L2.51069 16.7632L3.38853 13.8754L3.18198 13.5792C2.31217 12.3332 1.85266 10.8934 1.85336 9.41471C1.85511 5.10005 5.75407 1.58996 10.5476 1.58996C12.8689 1.59058 15.0509 2.40583 16.6918 3.88489C18.3326 5.36394 19.2356 7.32995 19.2349 9.42099C19.2332 13.7363 15.3345 17.2467 10.5445 17.2467Z" fill="#111111"/>
<path d="M15.3109 11.3858C15.0496 11.268 13.7653 10.699 13.5256 10.6205C13.2863 10.5419 13.1118 10.5027 12.9377 10.7383C12.7636 10.9739 12.2629 11.5036 12.1105 11.6606C11.958 11.8177 11.8055 11.8372 11.5445 11.7194C11.2832 11.6016 10.4413 11.3534 9.44346 10.5517C8.6668 9.92775 8.1424 9.15743 7.98993 8.92213C7.83746 8.68651 7.97353 8.55927 8.10437 8.44209C8.22195 8.33654 8.3657 8.1672 8.49619 8.02992C8.62668 7.89263 8.67029 7.7943 8.75752 7.63753C8.84474 7.48045 8.80113 7.34317 8.73588 7.22536C8.67064 7.10755 8.14798 5.94956 7.93027 5.47863C7.71814 5.01996 7.50287 5.08217 7.34237 5.07494C7.19025 5.06803 7.0158 5.06677 6.8417 5.06677C6.66759 5.06677 6.38464 5.12552 6.14494 5.36114C5.90559 5.59676 5.23047 6.1657 5.23047 7.32369C5.23047 8.48168 6.16657 9.6004 6.29741 9.75716C6.4279 9.91424 8.13961 12.2902 10.7606 13.3094C11.384 13.5519 11.8704 13.6964 12.25 13.8048C12.876 13.9839 13.4454 13.9587 13.8958 13.8981C14.3979 13.8305 15.4414 13.3291 15.6591 12.7797C15.8769 12.2302 15.8769 11.759 15.8116 11.661C15.7464 11.5626 15.5723 11.5036 15.3109 11.3858Z" fill="#111111"/>
</svg>
