<svg width="29" height="19" viewBox="0 0 29 19" fill="none" xmlns="http://www.w3.org/2000/svg">
<path d="M28.6372 3.78425C28.3622 1.77882 27.1079 0.520923 24.8816 0.335119C22.3324 0.122429 16.8142 0 14.2547 0C9.01916 0 6.67951 0.118108 4.20367 0.354804C1.84427 0.579977 0.811418 1.54836 0.405449 3.54756C0.121115 4.94853 0 6.26068 0 9.36173C0 12.1473 0.142427 13.8993 0.362825 15.3732C0.665872 17.3974 2.17019 18.5348 4.37469 18.7042C6.93942 18.9016 12.0772 19 14.6175 19C17.072 19 22.596 18.8819 25.0521 18.6255C27.2503 18.396 28.2957 17.3114 28.6372 15.3142C28.6372 15.3142 29 13.1263 29 9.34204C29 7.18729 28.8295 5.1833 28.6372 3.78425ZM11.4165 13.2646V5.56451L19.3545 9.37517L11.4165 13.2646Z" fill="#111111"/>
</svg>
