<svg width="20" height="20" fill="none" xmlns="http://www.w3.org/2000/svg"><g clip-path="url(#clip0_1_6276)" fill="#fff"><path d="M8.386 15.735a1.76 1.76 0 00-1.759 1.76c0 .97.79 1.758 1.76 1.758a1.76 1.76 0 001.758-1.759 1.76 1.76 0 00-1.759-1.759zm0 2.536a.778.778 0 010-1.554.778.778 0 010 1.554zm6.17-2.536a1.76 1.76 0 00-1.76 1.76c0 .97.79 1.758 1.76 1.758a1.76 1.76 0 001.759-1.759c0-.97-.79-1.759-1.76-1.759zm0 2.536a.778.778 0 010-1.554.778.778 0 010 1.554zm5.223-13.984a.978.978 0 00-.761-.362H3.722l-.31-1.5a.983.983 0 00-.57-.702L.687.787a.49.49 0 10-.391.901l2.155.936 2.376 11.533a.986.986 0 00.962.784h11.764a.491.491 0 100-.982H5.79l-.29-1.403h12.144c.464 0 .869-.33.962-.784l1.374-6.667a.978.978 0 00-.201-.818zm-2.135 7.287H5.298L3.924 4.907h15.094l-1.374 6.667z"/></g><defs><clipPath id="clip0_1_6276"><path fill="#fff" d="M0 0h20v20H0z"/></clipPath></defs></svg>