<svg width="60" height="50" fill="none" xmlns="http://www.w3.org/2000/svg"><path d="M57.162 17.177A14.175 14.175 0 0050.745 5.29c-6.551-4.284-15.333-2.447-19.618 4.102a1.396 1.396 0 01-2.253 0 13.87 13.87 0 00-11.863-6.39c-7.828 0-14.173 6.346-14.173 14.174 0 3.323 1.433 6.671 3.629 9.855 2.196 3.184 5.167 6.22 8.269 8.923 6.204 5.404 12.957 9.494 15.163 10.787l.1.059.1-.057c2.208-1.257 8.961-5.308 15.165-10.704 3.102-2.697 6.073-5.736 8.27-8.934 2.195-3.197 3.628-6.569 3.628-9.928zm0 0h-.2m.2 0s0 0 0 0h-.2m0 0c0 13.215-22.557 26.886-26.962 29.392l.936-36.709c.137-.099.256-.218.355-.355 4.224-6.46 12.885-8.272 19.344-4.048a13.975 13.975 0 016.327 11.72zM42.986.363h.001C52.273.364 59.8 7.89 59.8 17.176c0 4.026-1.732 8.016-4.372 11.756-2.639 3.739-6.173 7.213-9.75 10.202-7.152 5.978-14.45 9.996-15.013 10.296l-.008.005-.009.005a1.167 1.167 0 01-1.296 0l-.009-.005-.008-.005c-.563-.3-7.86-4.374-15.013-10.381-3.577-3.004-7.111-6.485-9.75-10.213C1.932 25.105.2 21.143.2 17.175.2 7.891 7.727.364 17.013.364h.002a16.432 16.432 0 0112.831 5.928l.153.183.154-.182A16.66 16.66 0 0142.986.363z" fill="#33C1CC" stroke="#fff" stroke-width=".4"/></svg>