<svg width="44" height="60" fill="none" xmlns="http://www.w3.org/2000/svg"><g clip-path="url(#clip0_1_1433)" fill="#33C1CC"><path d="M37.53 6.53V3.952A3.962 3.962 0 0033.58 0H9.877a3.962 3.962 0 00-3.951 3.95v7.297l-3.95 1.975V26.1l7.493 7.481h2.235c.58 3.297 1.05 6.099 1.11 10.617H4.939A4.937 4.937 0 000 49.136v6.913h4.173L5.16 60h9.445l.988-3.95h12.284l.987 3.95h9.445l.987-3.95h4.16v-6.914a4.937 4.937 0 00-4.938-4.939h-7.876c.062-4.518.53-7.32 1.111-10.617h2.235l7.493-7.494V13.222l-3.95-1.975V6.53zM7.902 3.95c0-1.086.89-1.975 1.976-1.975H33.58c1.087 0 1.976.89 1.976 1.976v18.765a1.981 1.981 0 01-1.976 1.975H9.877A1.981 1.981 0 017.9 22.716V3.951zm5.16 54.075h-6.37l-.493-1.976h7.345l-.481 1.976zm23.704 0h-6.358l-.493-1.976h7.345l-.494 1.976zm1.754-11.852a2.972 2.972 0 012.962 2.963v4.938H1.975V52.1h33.58v-1.975H1.976v-.988a2.972 2.972 0 012.963-2.963h33.58zM18.654 33.58h6.148c-.567 3.334-1.024 6.136-1.086 10.617h-3.988c-.049-4.481-.506-7.283-1.074-10.617zm20.852-19.148V25.26l-6.333 6.346h-1.05c.198-.988.408-1.926.605-2.729l-1.913-.469c-.95 3.84-2.062 8.63-2.148 15.79h-2.963c.098-6.962 1.172-11.58 2.098-15.32l-1.913-.47c-.235.939-.47 2.013-.704 3.198H18.31a86.608 86.608 0 00-.704-3.198l-1.914.47c.914 3.74 2 8.345 2.1 15.32h-2.964c-.099-7.16-1.21-11.95-2.148-15.79l-1.914.47c.198.802.408 1.728.605 2.728h-1.049l-6.37-6.333V14.444l1.975-.987v9.259a3.962 3.962 0 003.95 3.95H33.58a3.962 3.962 0 003.95-3.95v-9.272l1.976.988z"/><path d="M39.506 51.358h-1.975v1.975h1.975v-1.975zM23.445 12.284c0-.914-.741-1.667-1.667-1.667-.914 0-1.654.741-1.654 1.667 0 .914.74 1.667 1.666 1.667a1.673 1.673 0 001.655-1.667z"/><path d="M32.012 12.605a.584.584 0 000-.778c-.049-.062-1.123-1.271-2.913-2.494C26.95 7.864 24.407 6.84 21.79 6.84s-5.16 1.024-7.308 2.493c-1.79 1.223-2.865 2.432-2.914 2.494l.136.124-.136-.124a.584.584 0 000 .778c.05.062 1.123 1.272 2.914 2.494 2.148 1.469 4.69 2.494 7.308 2.494 2.617 0 5.16-1.025 7.309-2.494 1.79-1.222 2.864-2.432 2.913-2.494zM17.52 8.975a5.378 5.378 0 00-1.087 3.247c0 1.223.408 2.346 1.087 3.247a15.452 15.452 0 01-2.37-1.32l-.1.147.1-.148a16.755 16.755 0 01-2.346-1.926 18.076 18.076 0 012.32-1.913 16.414 16.414 0 012.396-1.334zm.086 3.247a4.191 4.191 0 014.185-4.197 4.191 4.191 0 014.185 4.197 4.191 4.191 0 01-4.185 4.198 4.191 4.191 0 01-4.185-4.198zm10.827-1.926a16.754 16.754 0 012.346 1.926 18.06 18.06 0 01-2.321 1.914c-.655.444-1.47.926-2.383 1.333a5.378 5.378 0 001.087-3.247 5.378 5.378 0 00-1.087-3.247 15.9 15.9 0 012.358 1.321z"/><path d="M21.79 17.778c-3.074 0-5.728-1.37-7.42-2.531-1.814-1.235-2.9-2.47-2.95-2.519a.796.796 0 01-.111-.864v-.012l.123-.136.012-.012.112-.124a17.157 17.157 0 012.827-2.382c1.691-1.149 4.345-2.531 7.42-2.531 3.074 0 5.728 1.37 7.42 2.53 1.802 1.235 2.9 2.47 2.95 2.52.26.295.26.727 0 1.011-.05.05-1.136 1.284-2.95 2.519-1.704 1.16-4.359 2.53-7.433 2.53zm-10.086-5.815a.397.397 0 000 .53c.05.05 1.098 1.248 2.876 2.458 1.642 1.123 4.222 2.456 7.21 2.456 2.976 0 5.568-1.333 7.21-2.456 1.778-1.21 2.84-2.408 2.877-2.457a.397.397 0 000-.531c-.05-.05-1.111-1.247-2.877-2.457-1.642-1.136-4.235-2.469-7.21-2.469-2.975 0-5.568 1.333-7.21 2.457-1.765 1.222-2.827 2.42-2.876 2.469zm10.086 4.642a4.381 4.381 0 01-4.37-4.383 4.381 4.381 0 014.37-4.382 4.381 4.381 0 014.37 4.382 4.381 4.381 0 01-4.37 4.383zm0-8.395c-2.21 0-4 1.802-4 4.012 0 2.21 1.803 4.013 4 4.013 2.198 0 4-1.803 4-4.013a4.01 4.01 0 00-4-4.012zm-3.69 7.716l-.654-.284a15.476 15.476 0 01-2.247-1.235l-.124-.086c-.012 0-.012-.012-.025-.012-.012-.013-.024-.013-.037-.025l-.11-.074a16.96 16.96 0 01-2.21-1.84l-.136-.135.135-.136a16.099 16.099 0 012.346-1.926c.79-.543 1.605-.988 2.42-1.346l.654-.284-.432.568a5.13 5.13 0 00-1.05 3.136c0 1.136.371 2.222 1.05 3.136l.42.543zm-2.84-1.938c.568.382 1.16.728 1.741 1.024a5.499 5.499 0 01-.753-2.79c0-.987.26-1.95.753-2.79-.593.296-1.185.642-1.765 1.037a16.747 16.747 0 00-2.16 1.753c.493.47 1.234 1.124 2.184 1.766zm10.223 1.938l.432-.568a5.129 5.129 0 001.049-3.136 5.23 5.23 0 00-1.05-3.136l-.431-.567.654.283c.815.359 1.617.803 2.395 1.334a18.208 18.208 0 012.37 1.938l.136.136-.136.136a16.105 16.105 0 01-2.345 1.926c-.79.543-1.605.987-2.42 1.345l-.654.309zm1.098-6.494c.494.852.753 1.803.753 2.79 0 1-.259 1.95-.753 2.79a15.291 15.291 0 001.766-1.037 16.738 16.738 0 002.16-1.753 16.179 16.179 0 00-2.185-1.765 12.574 12.574 0 00-1.74-1.025z"/></g><defs><clipPath id="clip0_1_1433"><path fill="#fff" d="M0 0h43.457v60H0z"/></clipPath></defs></svg>