<svg width="60" height="60" fill="none" xmlns="http://www.w3.org/2000/svg"><g clip-path="url(#clip0_1_1414)" fill="#33C1CC"><path d="M57.081 50.713c-4.142-5.959-11.164-13.328-16.814-18.218a.88.88 0 00-1.15 1.33c9.63 8.336 18.938 19.872 19.135 22.9-.297-.028-1.103-.224-2.84-1.322-9.422-6.006-24.897-23.482-25.108-27.488.592.048 2.521.801 6.543 4.017a.879.879 0 101.098-1.373c-2.066-1.652-3.823-2.86-5.224-3.593-1.153-.603-2.793-1.293-3.727-.332-.289.297-.413.668-.441 1.054-1.55 4.316-1.714 8.982-.626 13.41-2.038-.111-4.16-.168-6.325-.168C17.529 40.93 0 41.264 0 45.349c0 .42.169.774.415 1.068 3.653 8.155 11.952 13.416 21.187 13.416a23.71 23.71 0 008.744-1.651.88.88 0 10-.646-1.636c-9.776 3.858-21.16.244-26.532-8.654 6.886 2.173 21.227 2.113 28.474 1.437a25.389 25.389 0 003.517 4.073 21.421 21.421 0 01-2.856 1.911.88.88 0 00.857 1.535 23.2 23.2 0 003.347-2.275c6.297 5.094 14.628 6.705 22.005 3.907.527-.044.86-.271 1.05-.466 1.485-1.53-1.177-5.426-2.48-7.301zm-55.26-5.365c1.868-1.728 13.997-3.222 26.62-2.46a25.096 25.096 0 002.14 4.769c-12.53 1.044-26.722-.383-28.76-2.31zM29.494 30.74c2.386 4.564 8.097 10.97 11.721 14.7 3.576 3.679 9.935 9.706 14.37 12.107-15.293 3.68-29.52-11.495-26.091-26.807zm-16.194.907c.083-4.205 2.316-6.444 3.641-7.405a1.1 1.1 0 00.388-1.29 1.1 1.1 0 00-1.141-.715c-1.63.148-4.785-.068-7.615-3.18a1.107 1.107 0 00-1.214-.294 1.107 1.107 0 00-.72 1.021c-.082 4.205-2.316 6.444-3.64 7.405a1.1 1.1 0 00-.389 1.29 1.1 1.1 0 001.141.715 8.672 8.672 0 012.492.143.88.88 0 00.353-1.723 10.473 10.473 0 00-1.214-.176c1.234-1.274 2.536-3.267 2.911-6.187 2.204 1.95 4.496 2.594 6.263 2.742-1.233 1.275-2.535 3.268-2.91 6.189a11.98 11.98 0 00-1.004-.797.88.88 0 10-1.017 1.435c.612.434 1.197.956 1.74 1.554.31.34.786.455 1.215.294.429-.161.712-.562.72-1.02zm15.294-18.184c.066-3.349 1.845-5.133 2.9-5.898a.876.876 0 00.309-1.027.876.876 0 00-.909-.57c-1.298.118-3.812-.054-6.065-2.533a.882.882 0 00-.967-.234.882.882 0 00-.574.813c-.065 3.349-1.845 5.133-2.9 5.898a.876.876 0 00-.309 1.027.877.877 0 00.91.57 6.904 6.904 0 011.984.114.7.7 0 10.28-1.372 8.396 8.396 0 00-.966-.14c.983-1.016 2.02-2.603 2.319-4.929 1.755 1.554 3.58 2.067 4.988 2.185-.982 1.015-2.019 2.603-2.318 4.929a9.556 9.556 0 00-.8-.635.7.7 0 10-.81 1.143c.488.346.954.762 1.387 1.238.246.27.626.363.967.234a.882.882 0 00.574-.813z"/></g><defs><clipPath id="clip0_1_1414"><path fill="#fff" d="M0 0h60v60H0z"/></clipPath></defs></svg>