<svg width="48" height="60" fill="none" xmlns="http://www.w3.org/2000/svg"><path fill-rule="evenodd" clip-rule="evenodd" d="M6.525.126c-.316.184-.43.835-.522 2.986L5.92 5.078H.52l-.25.319c-.58.737-.175 4.97.738 7.716 1.287 3.871 4.035 7.28 7.564 9.381.8.477.917.6 1.426 1.502a21.534 21.534 0 003.57 4.674c1.895 1.897 3.754 3.138 5.926 3.956.434.163.856.353.94.422.116.097.15 1.297.15 5.244v5.118l-2.793.039c-2.768.038-2.795.04-3.024.324-.21.26-.231.504-.231 2.744v2.46l-2.286.037c-2.047.034-2.313.062-2.54.268-.25.226-.255.314-.255 4.567v4.336h-.042c-3.507 0-3.559.045-3.802.13-.61.212-.753.937-.292 1.473.172.2 1.562.212 18.774.212 18.494 0 18.593-.001 18.813-.243.302-.334.28-.92-.045-1.246-.265-.264-2.097-.265-4.315-.299l.064-.034v-4.274c0-4.142-.008-4.285-.251-4.594l-.25-.319h-4.563l-.04-2.528c-.035-2.284-.06-2.552-.269-2.782-.221-.244-.34-.254-2.994-.254H27.48V32.943l1.201-.455c2.231-.845 4.084-2.1 5.94-4.02 1.547-1.603 2.37-2.729 3.668-5.023.23-.407.506-.672.98-.944 2.834-1.62 5.468-4.5 6.91-7.552 1.17-2.476 1.614-4.368 1.71-7.284.092-2.804.353-2.587-3.11-2.587h-2.661l-.006-1.119C42.102 1.953 41.94.51 41.696.24 41.477 0 41.36-.003 24.104 0 12.718.004 6.661.047 6.525.127zm33.83 2.744c.129 1.67.097 6.365-.054 7.894-.283 2.865-.975 6.062-1.808 8.347-.539 1.48-1.804 4-2.643 5.262-2.162 3.256-5.108 5.63-8.249 6.65-.737.24-1.368.66-1.601 1.067-.114.2-.168 1.653-.213 5.772l-.06 5.504-1.604.034-1.603.034v-5.339c0-5.83.008-5.76-.714-6.452-.187-.18-.85-.516-1.474-.748-6.657-2.475-11.194-9.703-12.396-19.75-.192-1.604-.257-6.953-.104-8.508l.082-.825h32.359l.081 1.058zM23.697 6.318c-.11.083-.73 1.24-1.378 2.57-.648 1.331-1.224 2.452-1.28 2.49-.056.04-1.277.248-2.712.463-1.436.216-2.738.45-2.893.521-.331.151-.54.66-.413 1.003.082.219 1.265 1.413 3.378 3.41l.78.736-.45 2.645c-.248 1.454-.45 2.794-.448 2.977.006.45.398.817.873.817.255 0 1.19-.427 2.783-1.27 1.32-.699 2.454-1.27 2.521-1.27.068 0 1.122.571 2.342 1.27 2.355 1.348 2.768 1.48 3.22 1.028a.956.956 0 00.245-.575c.002-.183-.199-1.523-.446-2.977l-.45-2.645.718-.675c1.922-1.804 3.252-3.135 3.389-3.393.2-.376.017-.908-.374-1.086-.16-.073-1.464-.309-2.897-.523-1.433-.215-2.65-.421-2.706-.458-.055-.037-.628-1.157-1.274-2.487-.645-1.331-1.264-2.488-1.374-2.571-.11-.083-.37-.151-.578-.151-.207 0-.467.068-.576.15zm-17.871.665c.013 1.066.304 4.489.49 5.762.263 1.801.986 4.803 1.489 6.18.169.463.295.855.28.87-.078.077-1.773-1.478-2.346-2.15-2.336-2.747-3.558-5.801-3.852-9.633l-.085-1.12h2.011c1.107 0 2.012.041 2.013.091zm40.466 1.09c-.3 4.312-1.955 7.909-4.947 10.755-.658.626-1.218 1.116-1.245 1.089-.026-.027.057-.317.187-.645.794-2.016 1.64-6.089 1.84-8.857l.19-2.645.063-.877h3.994l-.082 1.18zm-21.116 3.044c.53 1.06 1.017 1.958 1.081 1.998.064.04.896.179 1.85.309.952.13 1.915.269 2.14.309l.41.072-1.529 1.544c-1.774 1.794-1.686 1.506-1.224 3.992.165.892.301 1.715.301 1.83 0 .163-.385.002-1.784-.743-.982-.523-1.935-.952-2.119-.953-.184 0-1.21.437-2.279.973-1.928.965-1.945.97-1.876.635.367-1.804.684-3.868.63-4.087-.038-.15-.752-.912-1.586-1.695-.835-.784-1.496-1.447-1.469-1.475.028-.027.956-.177 2.063-.333 1.116-.158 2.132-.364 2.282-.464.152-.1.667-.982 1.175-2.009.497-1.006.919-1.829.937-1.829.018 0 .466.867.997 1.926zm6.416 36v1.874h-15.12v-3.75h15.121v1.875zm5.202 7.379v3.69H11.391v-7.38h25.404v3.69z" fill="#33C1CC"/></svg>