<svg width="28" height="14" fill="none" xmlns="http://www.w3.org/2000/svg"><g clip-path="url(#clip0_1_2233)" fill="#fff"><path d="M.45 5.909L5.942.446c.537-.534 1.42-.613 1.984-.107.601.538.62 1.46.054 2.024L5.491 4.839a.443.443 0 00.315.757h8.974c.76 0 1.44.566 1.48 1.32a1.4 1.4 0 01-1.4 1.47H5.806a.443.443 0 00-.315.757l2.432 2.42c.537.534.616 1.413.108 1.973a1.407 1.407 0 01-2.034.055L.45 8.073a1.524 1.524 0 010-2.164zm19.604-.313h1.615c.774 0 1.402.625 1.402 1.395s-.628 1.395-1.402 1.395h-1.615a1.398 1.398 0 01-1.402-1.395c0-.77.627-1.395 1.402-1.395zm6.393 0h.152c.773 0 1.401.625 1.401 1.396 0 .77-.628 1.394-1.401 1.394h-.151a1.398 1.398 0 01-1.402-1.394c0-.77.627-1.396 1.401-1.396z"/></g><defs><clipPath id="clip0_1_2233"><path fill="#fff" transform="matrix(-1 0 0 1 28 0)" d="M0 0h28v14H0z"/></clipPath></defs></svg>