<svg width="10" height="12" fill="none" xmlns="http://www.w3.org/2000/svg"><path fill-rule="evenodd" clip-rule="evenodd" d="M4.105.025A4.741 4.741 0 001.735 1a6.514 6.514 0 00-.703.699A4.666 4.666 0 000 4.593c0 .875.288 1.828.766 2.534.075.112.922 1.253 1.882 2.538L4.394 12h.4l1.747-2.335a270.64 270.64 0 001.882-2.538c.075-.11.203-.335.283-.498.635-1.28.64-2.764.016-4.04A4.6 4.6 0 004.105.025zm.806 3.08a1.571 1.571 0 011.172 1.171c.072.343.028.67-.132.997-.137.28-.397.539-.677.676a1.474 1.474 0 01-1.36 0 1.553 1.553 0 01-.676-.676 1.474 1.474 0 010-1.36 1.58 1.58 0 011.028-.807c.201-.044.442-.044.645-.002z" fill="#39B6C0"/></svg>