<svg width="28" height="14" fill="none" xmlns="http://www.w3.org/2000/svg"><g clip-path="url(#clip0_1_2225)" fill="#fff"><path d="M27.55 5.909L22.058.446c-.537-.534-1.42-.613-1.984-.107a1.39 1.39 0 00-.054 2.024l2.488 2.476a.443.443 0 01-.315.757H13.22c-.76 0-1.44.566-1.48 1.32a1.4 1.4 0 001.4 1.47h9.054c.397 0 .596.478.315.757l-2.432 2.42c-.537.534-.616 1.413-.108 1.973a1.407 1.407 0 002.034.055l5.546-5.518a1.524 1.524 0 000-2.164zM7.946 5.596H6.331c-.774 0-1.402.625-1.402 1.395s.628 1.395 1.402 1.395h1.615c.775 0 1.402-.625 1.402-1.395S8.72 5.596 7.946 5.596zm-6.393 0H1.4c-.772 0-1.4.625-1.4 1.396 0 .77.628 1.394 1.401 1.394h.151c.775 0 1.402-.624 1.402-1.394 0-.77-.627-1.396-1.401-1.396z"/></g><defs><clipPath id="clip0_1_2225"><path fill="#fff" d="M0 0h28v14H0z"/></clipPath></defs></svg>