<svg width="20" height="20" fill="none" xmlns="http://www.w3.org/2000/svg"><g clip-path="url(#clip0_1_6237)"><path d="M8.448 0C3.79 0 0 3.79 0 8.448s3.79 8.448 8.448 8.448 8.448-3.79 8.448-8.448S13.106 0 8.448 0zm0 15.419a6.979 6.979 0 01-6.97-6.971 6.978 6.978 0 016.97-6.97 6.979 6.979 0 016.97 6.97 6.978 6.978 0 01-6.97 6.97zm11.335 3.32l-5.369-5.37a.739.739 0 10-1.045 1.045l5.37 5.37a.736.736 0 001.045 0 .739.739 0 000-1.045z" fill="#0F80C4"/></g><defs><clipPath id="clip0_1_6237"><path fill="#fff" d="M0 0h20v20H0z"/></clipPath></defs></svg>