<svg width="20" height="18" fill="none" xmlns="http://www.w3.org/2000/svg"><path fill-rule="evenodd" clip-rule="evenodd" d="M18.255.051a6.41 6.41 0 00-.567.197c-.194.076-4.03 1.568-8.526 3.315A2085.41 2085.41 0 00.815 6.818c-.799.36-1.056 1.117-.567 1.674.091.105.251.237.356.295.104.058 1.043.425 2.086.815 1.043.391 1.918.731 1.943.756.026.025.48 1.066 1.008 2.313.529 1.247 1 2.356 1.049 2.466.108.248.46.62.694.735.417.205.87.194 1.32-.034.261-.132.365-.223 1.389-1.214.361-.35.678-.628.704-.617.026.01.936.646 2.022 1.414 1.086.767 2.066 1.439 2.178 1.491.81.382 1.647.068 2.026-.76.118-.26.29-1.072 1.551-7.313 1.549-7.666 1.515-7.465 1.349-7.954-.226-.667-.942-1.025-1.668-.834zm.54 1.194c.025.026.046.104.046.173 0 .07-.29 1.568-.647 3.332l-1.41 6.993c-.419 2.083-.788 3.839-.82 3.902-.095.189-.228.256-.4.2-.08-.025-.936-.606-1.904-1.29a1339.39 1339.39 0 00-3.371-2.377c-.886-.623-1.608-1.143-1.604-1.157.005-.014 1.32-1.257 2.921-2.763 3.35-3.147 3.466-3.26 3.524-3.442.122-.38-.22-.808-.607-.76-.102.012-.42.164-.883.42-.759.42-6.098 3.358-7.65 4.209-.497.272-.929.496-.96.496-.031 0-.267-.08-.524-.177l-1.718-.646a35.475 35.475 0 01-1.279-.496c-.015-.014 3.337-1.333 7.45-2.932l8.479-3.295c1.229-.479 1.261-.488 1.356-.39zm-8.168 6.304c-.031.03-.796.75-1.7 1.598-.903.85-1.668 1.577-1.7 1.617-.047.058-.065.273-.088 1.04a63.184 63.184 0 01-.039 1.113c-.009.124-.104-.074-.634-1.321-.343-.807-.607-1.474-.587-1.482.02-.008 1.093-.6 2.384-1.314 1.29-.714 2.363-1.3 2.384-1.301.02-.002.012.02-.02.05zm-1.584 5.206c.377.266.693.497.703.512.016.027-1.358 1.375-1.43 1.403-.018.008-.034-.53-.034-1.193 0-.75.015-1.207.038-1.207.021 0 .346.218.723.485z" fill="#25A8E3"/></svg>