<svg width="18" height="18" fill="none" xmlns="http://www.w3.org/2000/svg"><g clip-path="url(#clip0_1_2270)" fill="#40AC69"><path d="M15.34 2.614A8.934 8.934 0 009 0a8.98 8.98 0 00-6.35 2.612A8.826 8.826 0 000 8.917v.004c0 1.438.378 2.889 1.096 4.213L.025 18l4.927-1.12c1.247.629 2.64.96 4.044.96H9a8.98 8.98 0 006.35-2.612A8.816 8.816 0 0018 8.924c0-2.361-.944-4.602-2.66-6.31zM9 16.436h-.004a7.61 7.61 0 01-3.612-.915l-.233-.127-3.277.745.712-3.231-.137-.237C1.767 11.496 1.406 10.2 1.406 8.92 1.41 4.778 4.815 1.405 9 1.405c2.022 0 3.921.784 5.349 2.204 1.449 1.443 2.246 3.33 2.246 5.314-.002 4.143-3.409 7.513-7.594 7.513z"/><path d="M6.55 4.987h-.394a.758.758 0 00-.549.257c-.188.205-.72.7-.72 1.71 0 1.008.737 1.982.84 2.12.103.136 1.424 2.272 3.517 3.093 1.739.683 2.093.547 2.47.513.378-.034 1.218-.496 1.39-.974.171-.479.171-.89.12-.975-.052-.085-.189-.136-.395-.239-.206-.103-1.215-.607-1.403-.675-.19-.068-.326-.103-.464.103-.137.204-.541.679-.661.815-.12.137-.24.154-.446.052-.206-.103-.863-.323-1.65-1.021-.611-.544-1.036-1.237-1.156-1.442-.12-.205-.013-.316.09-.418.093-.092.218-.218.32-.337.104-.12.133-.205.202-.342.068-.137.034-.257-.018-.36-.051-.102-.446-1.115-.63-1.52-.153-.342-.316-.354-.462-.36z"/></g><defs><clipPath id="clip0_1_2270"><path fill="#fff" d="M0 0h18v18H0z"/></clipPath></defs></svg>