<svg width="60" height="50" viewBox="0 0 60 50" fill="none" xmlns="http://www.w3.org/2000/svg">
<path d="M57.1619 17.1766C57.1698 12.3843 54.7556 7.9125 50.7446 5.28977C44.194 1.00645 35.4117 2.84319 31.1265 9.39184C31.0407 9.50932 30.9369 9.61268 30.8189 9.69831C30.1968 10.1495 29.3273 10.0123 28.8741 9.3926C26.2898 5.35591 21.8044 2.93922 17.0114 3.00171C9.18347 3.00242 2.83798 9.34849 2.83798 17.1764C2.83798 20.4989 4.27135 23.8473 6.46668 27.0306C8.6632 30.2155 11.6338 33.2517 14.7357 35.9539C20.9396 41.3585 27.6927 45.4482 29.8988 46.7414L29.9984 46.7998L30.0988 46.7427C32.3066 45.4865 39.06 41.4347 45.2641 36.0394C48.3661 33.3417 51.3369 30.3031 53.5335 27.1049C55.7289 23.9083 57.1618 20.5365 57.1619 17.1766ZM57.1619 17.1766L56.9619 17.1763M57.1619 17.1766C57.1619 17.1765 57.1619 17.1764 57.1619 17.1763L56.9619 17.1763M56.9619 17.1763C56.962 30.3916 34.405 44.0625 29.9999 46.5689L30.9364 9.86018C31.0726 9.76132 31.1924 9.64168 31.2911 9.50547C35.5149 3.04588 44.1756 1.23338 50.6352 5.45716C54.5896 8.04288 56.9697 12.4516 56.9619 17.1763ZM42.9862 0.363881H42.9873C52.2727 0.363881 59.8 7.89109 59.8 17.1764C59.8 21.2017 58.0675 25.1915 55.428 28.9318C52.7894 32.6707 49.2552 36.1447 45.6787 39.1338C38.5257 45.112 31.2288 49.1299 30.6654 49.4304L30.6566 49.435L30.6484 49.4405C30.2558 49.7028 29.744 49.7028 29.3516 49.4406L29.3434 49.435L29.3346 49.4304C28.7723 49.1304 21.4751 45.0556 14.3216 39.0486C10.745 36.0452 7.21063 32.564 4.57187 28.8355C1.93199 25.1054 0.2 21.1442 0.2 17.1764C0.2 7.89109 7.72721 0.363881 17.0126 0.363895L17.0149 0.363867C21.9668 0.305412 26.6808 2.48332 29.8461 6.29165L29.9989 6.47549L30.1529 6.29264C33.3387 2.50954 38.0404 0.337447 42.9862 0.363881Z" fill="#33C1CC" stroke="white" stroke-width="0.4"/>
</svg>
