<svg width="10" height="6" viewBox="0 0 10 6" fill="none" xmlns="http://www.w3.org/2000/svg">
<path d="M0.160006 5.50551L0.488006 5.83551C0.591005 5.93851 0.728005 5.99551 0.875006 5.99551C1.02201 5.99551 1.15901 5.93851 1.26201 5.83551L4.99801 2.09851L8.73901 5.83951C8.84201 5.94251 8.97901 5.99951 9.12501 5.99951C9.27101 5.99951 9.40901 5.94251 9.51201 5.83951L9.84001 5.51251C10.053 5.29951 10.053 4.95251 9.84001 4.73851L5.38601 0.268511C5.28301 0.165511 5.14601 0.0935112 4.99801 0.0935111L4.99601 0.0935111C4.84901 0.0935111 4.71201 0.166511 4.60901 0.268511L0.159006 4.72651C0.057006 4.82951 5.812e-06 4.97051 5.79915e-06 5.11751C5.78639e-06 5.26351 0.0570059 5.40251 0.160006 5.50551Z" fill="#028ECE"/>
</svg>
