<svg width="18" height="18" viewBox="0 0 18 18" fill="none" xmlns="http://www.w3.org/2000/svg">
<g clip-path="url(#clip0_1_2270)">
<path d="M15.3401 2.61394C13.6476 0.92932 11.396 0.000949219 8.99958 0C6.60859 0 4.3534 0.927527 2.64971 2.61172C0.942988 4.2988 0.00221697 6.54086 0 8.91664V8.91939V8.92104C0.000281521 10.359 0.378434 11.8096 1.09624 13.1337L0.0245979 18L4.95163 16.8803C6.1995 17.5086 7.59183 17.8399 8.99616 17.8404H8.99975C11.3904 17.8404 13.6455 16.9128 15.3495 15.2284C17.0577 13.54 17.9989 11.3008 18 8.9235C18.0007 6.56297 17.0562 4.32214 15.3401 2.61394ZM8.99958 16.4355H8.99641C7.73548 16.435 6.48609 16.1187 5.38352 15.5207L5.15052 15.3943L1.87426 16.1388L2.58591 12.9077L2.44874 12.6714C1.76665 11.4962 1.40623 10.199 1.40623 8.91953C1.40883 4.77809 4.81485 1.40488 8.9993 1.40488C11.0208 1.40569 12.9202 2.18862 14.3476 3.60914C15.7966 5.05164 16.5943 6.93882 16.5936 8.92308C16.592 13.0655 13.1853 16.4355 8.99958 16.4355Z" fill="#40AC69"/>
<path d="M6.55072 4.9873H6.1562C6.01889 4.9873 5.79593 5.03867 5.60731 5.2437C5.41858 5.44887 4.88672 5.94475 4.88672 6.95331C4.88672 7.96187 5.62448 8.93633 5.7273 9.07327C5.83027 9.21006 7.15141 11.3458 9.24385 12.1674C10.9829 12.8502 11.3369 12.7144 11.7142 12.6802C12.0916 12.6462 12.9322 12.1844 13.1037 11.7059C13.2753 11.2273 13.2753 10.8169 13.2239 10.7312C13.1723 10.6458 13.035 10.5946 12.8292 10.4921C12.6233 10.3895 11.6144 9.88527 11.4256 9.81675C11.2369 9.74851 11.0997 9.7143 10.9624 9.91962C10.825 10.1245 10.4207 10.5986 10.3006 10.7353C10.1806 10.8723 10.0605 10.8894 9.85454 10.7868C9.64861 10.684 8.99238 10.4637 8.20595 9.76553C7.59382 9.22212 7.16908 8.52915 7.04894 8.32398C6.92894 8.11895 7.03617 8.008 7.13938 7.90569C7.23189 7.81397 7.35685 7.68843 7.45978 7.56883C7.56261 7.44908 7.59189 7.36365 7.66061 7.22686C7.7292 7.09007 7.69485 6.97033 7.64344 6.86788C7.59189 6.76529 7.19684 5.75167 7.01371 5.34628H7.01385C6.85976 5.00488 6.69739 4.99335 6.55072 4.9873Z" fill="#40AC69"/>
</g>
<defs>
<clipPath id="clip0_1_2270">
<rect width="18" height="18" fill="white"/>
</clipPath>
</defs>
</svg>
